<svg xmlns="http://www.w3.org/2000/svg" version="1.1" xmlns:xlink="http://www.w3.org/1999/xlink" width="1000" height="1000"><metadata><rdf:RDF xmlns:rdf="http://www.w3.org/1999/02/22-rdf-syntax-ns#" xmlns:dc="http://purl.org/dc/elements/1.1/"><rdf:Description><dc:creator>RealFaviconGenerator</dc:creator><dc:source>https://realfavicongenerator.net</dc:source></rdf:Description></rdf:RDF></metadata><style>
    #light-icon {
      display: inline;
    }
    #dark-icon {
      display: none;
    }

    @media (prefers-color-scheme: dark) {
      #light-icon {
        display: none;
      }
      #dark-icon {
        display: inline;
      }
    }
  </style><g id="light-icon"><svg xmlns="http://www.w3.org/2000/svg" version="1.1" xmlns:xlink="http://www.w3.org/1999/xlink" width="1000" height="1000"><g><g transform="matrix(100,0,0,100,0,0)"><svg xmlns="http://www.w3.org/2000/svg" width="10" height="10" viewBox="0 0 10 10" fill="none"><path d="M4.4 8L4.74275 8.57125C4.85763 8.76272 4.91507 8.85845 5 8.85845C5.08493 8.85845 5.14237 8.76272 5.25725 8.57125L5.6 8H4.4Z" fill="#31343B"></path><path d="M7.78029 6.56103C7.88599 6.53167 7.93884 6.51699 7.96942 6.47676C8 6.43652 8 6.38167 8 6.27197V4L6.2 7L7.78029 6.56103Z" fill="#31343B"></path><path d="M2 4V6.27197C2 6.38167 2 6.43652 2.03058 6.47676C2.06116 6.51699 2.11401 6.53167 2.21971 6.56103L3.8 7L2 4Z" fill="#31343B"></path><path d="M4.4 8H5.6L6.2 7L8 4V1.99083C8 1.58635 8 1.38411 7.89347 1.35185C7.78694 1.3196 7.67475 1.48787 7.45039 1.82442L6.08906 3.86641C6.04546 3.9318 6.02366 3.9645 5.9905 3.98225C5.95734 4 5.91804 4 5.83944 4H4.16056C4.08196 4 4.04266 4 4.0095 3.98225C3.97633 3.9645 3.95454 3.9318 3.91094 3.86641L2.54961 1.82442C2.32525 1.48787 2.21306 1.3196 2.10653 1.35185C2 1.38411 2 1.58635 2 1.99083V4L3.8 7L4.4 8Z" fill="#FF7700"></path><path d="M7.92285 1.25586C7.9814 1.27368 8.01981 1.31543 8.04395 1.36328C8.06651 1.4082 8.07878 1.46298 8.08594 1.51953C8.1002 1.63251 8.09961 1.79226 8.09961 1.99121V6.27246C8.09961 6.32472 8.10036 6.37259 8.0957 6.41211C8.09072 6.45439 8.0789 6.49755 8.04883 6.53711C8.01876 6.57667 7.97984 6.59912 7.94043 6.61523C7.90352 6.6303 7.85706 6.64322 7.80664 6.65723L6.26562 7.08496L5.34277 8.62305C5.28715 8.71575 5.23946 8.79568 5.19434 8.85059C5.14841 8.90636 5.08732 8.95801 5 8.95801C4.91268 8.95801 4.85159 8.90636 4.80566 8.85059C4.76054 8.79568 4.71285 8.71575 4.65723 8.62305L4.31445 8.05176L3.7334 7.08496L2.19336 6.65723C2.14294 6.64322 2.09648 6.6303 2.05957 6.61523C2.02016 6.59912 1.98124 6.57667 1.95117 6.53711C1.9211 6.49755 1.90928 6.45439 1.9043 6.41211C1.89964 6.37259 1.90039 6.32472 1.90039 6.27246V1.99121C1.90039 1.79226 1.8998 1.63251 1.91406 1.51953C1.92122 1.46298 1.93349 1.4082 1.95605 1.36328C1.98019 1.31543 2.0186 1.27368 2.07715 1.25586C2.136 1.23804 2.19151 1.25172 2.23828 1.27832C2.28198 1.30318 2.32205 1.34169 2.35938 1.38477C2.43388 1.4708 2.52252 1.60311 2.63281 1.76855L3.99414 3.81055C4.01689 3.84467 4.03058 3.8648 4.04199 3.87891C4.05213 3.89141 4.05586 3.89411 4.05664 3.89453C4.05771 3.8951 4.06206 3.89702 4.07715 3.89844C4.09518 3.90012 4.11927 3.90039 4.16016 3.90039H5.83984C5.88073 3.90039 5.90482 3.90012 5.92285 3.89844C5.93794 3.89702 5.94229 3.8951 5.94336 3.89453C5.94414 3.89411 5.94787 3.89141 5.95801 3.87891C5.96942 3.8648 5.98311 3.84467 6.00586 3.81055L7.36719 1.76855C7.47748 1.60311 7.56612 1.4708 7.64062 1.38477C7.67795 1.34169 7.71802 1.30318 7.76172 1.27832C7.80849 1.25172 7.864 1.23804 7.92285 1.25586Z" stroke="#31343B" stroke-width="0.2" stroke-linejoin="round"></path></svg></g></g></svg></g><g id="dark-icon"><svg xmlns="http://www.w3.org/2000/svg" version="1.1" xmlns:xlink="http://www.w3.org/1999/xlink" width="1000" height="1000"><g><g transform="matrix(100,0,0,100,0,0)"><svg xmlns="http://www.w3.org/2000/svg" width="10" height="10" viewBox="0 0 10 10" fill="none"><path d="M4.4 8L4.74275 8.57125C4.85763 8.76272 4.91507 8.85845 5 8.85845C5.08493 8.85845 5.14237 8.76272 5.25725 8.57125L5.6 8H4.4Z" fill="white"></path><path d="M7.78029 6.56103C7.88599 6.53167 7.93884 6.51699 7.96942 6.47676C8 6.43652 8 6.38167 8 6.27197V4L6.2 7L7.78029 6.56103Z" fill="white"></path><path d="M2 4V6.27197C2 6.38167 2 6.43652 2.03058 6.47676C2.06116 6.51699 2.11401 6.53167 2.21971 6.56103L3.8 7L2 4Z" fill="white"></path><path d="M4.4 8H5.6L6.2 7L8 4V1.99083C8 1.58635 8 1.38411 7.89347 1.35185C7.78694 1.3196 7.67475 1.48787 7.45039 1.82442L6.08906 3.86641C6.04546 3.9318 6.02366 3.9645 5.9905 3.98225C5.95734 4 5.91804 4 5.83944 4H4.16056C4.08196 4 4.04266 4 4.0095 3.98225C3.97633 3.9645 3.95454 3.9318 3.91094 3.86641L2.54961 1.82442C2.32525 1.48787 2.21306 1.3196 2.10653 1.35185C2 1.38411 2 1.58635 2 1.99083V4L3.8 7L4.4 8Z" fill="#FF7700"></path><path d="M7.92285 1.25586C7.9814 1.27368 8.01981 1.31543 8.04395 1.36328C8.06651 1.4082 8.07878 1.46298 8.08594 1.51953C8.1002 1.63251 8.09961 1.79226 8.09961 1.99121V6.27246C8.09961 6.32472 8.10036 6.37259 8.0957 6.41211C8.09072 6.45439 8.0789 6.49755 8.04883 6.53711C8.01876 6.57667 7.97984 6.59912 7.94043 6.61523C7.90352 6.6303 7.85706 6.64322 7.80664 6.65723L6.26562 7.08496L5.34277 8.62305C5.28715 8.71575 5.23946 8.79568 5.19434 8.85059C5.14841 8.90636 5.08732 8.95801 5 8.95801C4.91268 8.95801 4.85159 8.90636 4.80566 8.85059C4.76054 8.79568 4.71285 8.71575 4.65723 8.62305L4.31445 8.05176L3.7334 7.08496L2.19336 6.65723C2.14294 6.64322 2.09648 6.6303 2.05957 6.61523C2.02016 6.59912 1.98124 6.57667 1.95117 6.53711C1.9211 6.49755 1.90928 6.45439 1.9043 6.41211C1.89964 6.37259 1.90039 6.32472 1.90039 6.27246V1.99121C1.90039 1.79226 1.8998 1.63251 1.91406 1.51953C1.92122 1.46298 1.93349 1.4082 1.95605 1.36328C1.98019 1.31543 2.0186 1.27368 2.07715 1.25586C2.136 1.23804 2.19151 1.25172 2.23828 1.27832C2.28198 1.30318 2.32205 1.34169 2.35938 1.38477C2.43388 1.4708 2.52252 1.60311 2.63281 1.76855L3.99414 3.81055C4.01689 3.84467 4.03058 3.8648 4.04199 3.87891C4.05213 3.89141 4.05586 3.89411 4.05664 3.89453C4.05771 3.8951 4.06206 3.89702 4.07715 3.89844C4.09518 3.90012 4.11927 3.90039 4.16016 3.90039H5.83984C5.88073 3.90039 5.90482 3.90012 5.92285 3.89844C5.93794 3.89702 5.94229 3.8951 5.94336 3.89453C5.94414 3.89411 5.94787 3.89141 5.95801 3.87891C5.96942 3.8648 5.98311 3.84467 6.00586 3.81055L7.36719 1.76855C7.47748 1.60311 7.56612 1.4708 7.64062 1.38477C7.67795 1.34169 7.71802 1.30318 7.76172 1.27832C7.80849 1.25172 7.864 1.23804 7.92285 1.25586Z" stroke="white" stroke-width="0.2" stroke-linejoin="round"></path></svg></g></g></svg></g></svg>